<?xml version="1.0" standalone="no"?>
<!DOCTYPE svg PUBLIC "-//W3C//DTD SVG 20010904//EN"
 "http://www.w3.org/TR/2001/REC-SVG-20010904/DTD/svg10.dtd">
<svg version="1.0" xmlns="http://www.w3.org/2000/svg"
 width="460.000000pt" height="460.000000pt" viewBox="0 0 460.000000 460.000000"
 preserveAspectRatio="xMidYMid meet">
<metadata>
Created by potrace 1.14, written by Peter Selinger 2001-2017
</metadata>
<g transform="translate(0.000000,460.000000) scale(0.100000,-0.100000)"
fill="#000000" stroke="none">
<path d="M0 2300 l0 -2300 825 0 c652 0 826 3 830 13 2 6 15 52 30 102 44 153
48 165 53 165 6 0 24 -23 69 -90 20 -30 56 -77 80 -105 24 -27 43 -58 43 -67
0 -13 8 -18 30 -18 17 0 30 4 30 9 0 22 -24 69 -74 145 -29 44 -62 97 -72 116
-10 19 -33 61 -52 92 -18 32 -30 62 -27 68 4 6 1 9 -7 8 -7 -2 -14 7 -16 20
-2 12 0 22 5 22 14 -1 43 -27 43 -39 0 -13 10 -14 26 -3 20 13 25 48 14 113
-5 35 -11 73 -12 83 -2 10 4 21 12 24 13 5 13 3 1 -11 -10 -13 -10 -17 -1 -17
7 0 10 -6 7 -14 -4 -9 0 -13 11 -12 9 2 18 9 20 17 3 11 1 11 -7 -1 -8 -12
-11 -5 -11 28 0 23 -3 42 -7 42 -14 -1 -43 -27 -43 -38 0 -6 -6 -12 -13 -15
-8 -3 -6 -10 8 -21 20 -16 20 -17 -3 -14 -20 3 -26 -4 -40 -45 -19 -53 -115
-166 -315 -371 -82 -84 -117 -113 -112 -96 4 14 20 44 36 67 49 72 84 125 134
203 26 41 78 116 115 165 36 50 95 140 129 202 78 137 105 155 106 73 0 -27 4
-39 12 -36 8 3 14 -12 19 -42 4 -26 13 -64 20 -85 10 -28 10 -36 1 -30 -6 4
-2 -6 11 -21 14 -19 20 -36 16 -51 -3 -13 -1 -26 5 -29 7 -5 8 -1 4 11 -9 26
30 -24 54 -69 11 -21 23 -35 25 -32 3 3 8 -2 12 -11 3 -9 2 -13 -4 -10 -6 3
-10 3 -11 -2 0 -4 -2 -23 -4 -42 -2 -24 0 -30 7 -20 7 10 8 8 5 -9 -3 -12 -1
-22 4 -22 5 0 9 -9 9 -20 0 -23 25 -27 34 -5 3 8 2 22 -1 32 -4 11 -3 14 5 9
7 -4 12 -18 12 -32 0 -13 4 -24 9 -24 12 0 32 -110 25 -136 -3 -12 -1 -25 4
-28 6 -4 8 2 5 15 -5 18 0 17 42 -12 35 -24 44 -34 33 -41 -9 -6 -6 -7 9 -3
15 4 31 -3 56 -25 l35 -30 481 0 482 0 19 43 c11 23 34 67 51 97 52 93 135
327 152 430 27 160 28 207 13 434 -19 270 -13 311 32 223 12 -23 40 -71 62
-106 22 -36 40 -75 40 -88 0 -13 5 -23 10 -23 6 0 9 -25 8 -57 l-1 -58 -7 50
-7 50 -1 -55 c0 -30 3 -63 7 -74 4 -10 3 -49 -2 -87 -9 -73 5 -179 25 -179 7
0 9 -19 5 -52 -5 -53 -3 -62 59 -205 7 -18 18 -33 24 -33 5 0 10 -7 10 -15 0
-8 7 -15 15 -15 8 0 15 -9 15 -19 0 -24 13 -33 34 -25 19 7 22 34 4 34 -10 0
-10 2 0 9 9 5 11 17 6 36 -4 18 -3 26 3 22 6 -4 16 0 23 8 11 13 8 15 -14 15
-27 0 -31 7 -20 34 4 11 19 16 49 16 26 0 45 5 48 13 2 6 8 9 12 5 4 -4 2 -15
-6 -24 -12 -15 -11 -16 9 -10 32 11 48 -14 47 -71 -1 -27 1 -39 6 -31 6 8 9 1
9 -22 0 -19 2 -66 5 -105 3 -38 3 -64 -1 -57 -3 6 -11 12 -17 12 -8 0 -7 -4 1
-12 7 -7 12 -21 13 -32 0 -21 0 -21 9 -1 7 16 9 12 10 -20 2 -22 2 -43 1 -47
0 -5 130 -8 289 -8 l290 0 0 388 0 389 -72 1 c-88 2 -121 8 -170 33 -21 11
-38 16 -38 11 0 -4 -7 -17 -15 -28 -14 -18 -19 -14 -112 81 -94 96 -158 150
-251 210 -23 15 -42 31 -42 35 0 4 -8 10 -17 13 -20 7 -122 64 -140 79 -7 6
-10 15 -6 21 3 6 1 7 -5 3 -17 -10 -71 33 -65 53 4 14 3 14 -6 1 -5 -8 -13
-11 -17 -7 -12 12 11 28 29 22 9 -4 13 -13 10 -23 -5 -14 -3 -15 7 -5 11 10
20 8 46 -12 18 -14 37 -25 42 -25 6 0 12 -3 14 -8 4 -11 103 -72 116 -72 5 0
12 -4 14 -8 3 -8 72 -49 133 -80 17 -8 50 -29 75 -47 25 -17 90 -55 145 -84
55 -30 109 -60 120 -67 42 -30 127 -12 169 35 l19 21 -42 0 c-23 0 -51 -5 -62
-11 -11 -5 -30 -9 -42 -6 -20 3 -20 4 7 16 16 6 38 21 48 33 18 21 18 21 -29
44 -27 12 -84 34 -129 47 -102 32 -260 103 -257 116 2 6 -4 8 -12 5 -8 -3 -32
7 -52 23 -21 15 -64 41 -96 58 -33 16 -54 31 -48 33 20 7 11 24 -10 19 -12 -3
-19 -3 -16 0 9 8 -62 65 -73 58 -6 -3 -7 0 -4 10 5 11 2 14 -12 8 -13 -5 -16
-3 -11 10 4 11 2 14 -7 11 -7 -3 -25 9 -40 26 -14 17 -26 29 -26 25 0 -3 -14
10 -31 30 -18 20 -29 38 -25 42 3 3 -2 12 -12 19 -9 7 -14 16 -10 19 4 4 60
-47 125 -113 76 -77 132 -126 158 -136 32 -14 37 -19 25 -27 -12 -8 -10 -9 6
-4 27 7 56 -4 47 -18 -3 -5 -1 -7 5 -3 14 8 154 -68 145 -79 -5 -4 -2 -5 5 0
8 4 24 3 35 -3 81 -39 157 -72 167 -72 6 0 8 -5 4 -12 -4 -6 -3 -8 3 -5 11 7
150 -40 205 -69 17 -9 41 -28 54 -42 l24 -27 -5 910 c-2 501 -6 957 -9 1015
-2 61 -1 92 4 75 6 -25 8 -22 8 25 1 31 -5 66 -13 80 -18 32 -18 40 0 40 10 0
15 10 15 30 0 23 -5 30 -19 30 -11 0 -22 6 -24 13 -3 6 -6 3 -7 -8 l-1 -20 -9
20 c-13 31 -12 48 4 42 10 -4 13 2 12 19 -1 28 -1 28 -20 9 -9 -9 -17 -11 -21
-5 -3 5 -1 10 4 10 6 0 11 7 11 15 0 8 -5 14 -12 12 -6 -1 -15 12 -19 28 -94
368 -113 405 -219 420 -46 6 -50 9 -50 33 0 15 11 49 25 76 13 27 21 55 18 63
-3 7 2 22 10 31 9 10 23 45 32 79 9 34 27 89 40 122 14 33 25 71 26 83 0 13 3
18 5 11 6 -15 71 41 79 68 4 10 12 18 18 16 6 -1 16 13 21 31 8 24 16 32 33
32 20 0 23 5 23 40 0 29 4 40 15 40 11 0 15 -12 15 -44 0 -26 -6 -48 -15 -56
-12 -10 -15 -10 -15 1 -1 23 -30 -22 -30 -46 0 -12 11 -31 25 -43 25 -22 34
-52 15 -52 -14 0 -13 -36 2 -60 10 -15 10 -27 1 -49 -12 -32 -6 -119 9 -138 6
-7 3 -25 -7 -50 -10 -22 -18 -83 -22 -150 l-6 -113 26 0 27 0 0 480 0 480 -80
0 c-69 0 -80 -2 -81 -17 0 -15 -2 -15 -7 -3 -13 28 -33 22 -26 -7 3 -17 2 -23
-3 -16 -5 7 -13 9 -19 5 -16 -10 -54 -99 -60 -139 -1 -12 -11 -30 -22 -41 -11
-11 -27 -42 -36 -70 -11 -33 -22 -49 -33 -48 -9 0 -18 -5 -20 -11 -3 -7 2 -13
11 -13 25 0 19 -28 -6 -32 -20 -3 -23 -10 -26 -50 -2 -36 -6 -46 -18 -41 -9 3
-14 -2 -14 -16 0 -30 -27 -91 -39 -91 -6 0 -11 9 -11 20 0 13 5 18 15 14 10
-4 15 0 15 11 0 9 -4 13 -10 10 -13 -8 -13 -3 1 32 6 15 12 51 14 78 1 28 18
111 37 185 20 74 38 159 42 188 l7 52 -37 0 c-35 0 -36 -1 -31 -28 8 -38 -2
-49 -43 -54 -35 -3 -35 -3 -38 40 l-3 42 -175 0 -174 0 0 -79 c0 -55 4 -81 13
-84 9 -3 9 -7 1 -18 -6 -8 -14 -29 -18 -47 -3 -19 -15 -45 -26 -60 -11 -14
-16 -28 -11 -31 5 -3 12 -41 16 -83 6 -68 5 -78 -9 -78 -12 0 -16 -10 -16 -40
l0 -40 40 0 c22 0 40 -4 40 -10 0 -5 18 -10 40 -10 22 0 40 5 40 10 0 6 5 10
11 10 14 0 69 55 69 69 0 6 7 11 16 11 10 0 14 7 12 22 -5 32 -28 35 -28 4 0
-26 -1 -26 -80 -26 l-80 0 0 43 c0 43 1 43 30 39 25 -4 30 -1 30 16 0 11 -7
22 -15 26 -16 6 -21 36 -6 36 5 0 12 11 15 25 8 30 26 33 26 5 0 -13 7 -20 20
-20 16 0 20 7 20 35 0 28 4 35 20 35 16 0 20 -7 20 -34 0 -38 -12 -46 -66 -46
-33 0 -45 -12 -24 -25 6 -3 10 -17 10 -31 0 -23 3 -24 65 -24 l65 0 0 40 c0
29 4 40 15 40 9 0 15 9 15 24 0 13 7 29 15 36 9 8 15 30 15 56 0 24 5 44 10
44 6 0 10 18 10 40 0 29 4 40 15 40 8 0 15 -7 15 -15 0 -8 7 -15 15 -15 8 0
15 5 15 10 0 6 9 10 20 10 11 0 20 -4 20 -10 0 -5 -7 -10 -15 -10 -8 0 -15 -5
-15 -11 0 -6 9 -9 20 -6 11 3 20 1 20 -4 0 -5 -5 -9 -11 -9 -6 0 -9 -7 -5 -15
3 -8 2 -15 -3 -15 -4 0 -11 -27 -14 -60 -3 -35 -12 -66 -21 -75 -19 -19 -21
-29 -4 -19 8 5 9 2 5 -10 -4 -10 -7 -22 -7 -27 0 -6 -5 -7 -11 -3 -8 4 -9 -1
-4 -15 4 -15 1 -29 -8 -39 -22 -24 -70 -161 -63 -178 4 -10 2 -12 -6 -8 -7 5
-9 -2 -5 -22 3 -16 0 -38 -6 -49 -5 -11 -12 -32 -13 -48 -2 -15 -9 -38 -16
-50 -7 -12 -13 -26 -15 -32 -7 -30 -36 -101 -44 -109 -5 -6 -9 -17 -9 -26 0
-19 -47 -118 -68 -142 -8 -10 -12 -24 -8 -33 3 -9 2 -13 -4 -10 -6 3 -13 -2
-17 -12 -4 -10 -9 -20 -12 -23 -4 -3 -12 -17 -18 -32 -9 -20 -20 -28 -40 -29
-17 -1 -21 -3 -10 -6 31 -8 18 -18 -26 -18 -36 0 -41 2 -30 13 17 17 17 17
-12 20 -14 1 -36 3 -49 5 -13 1 -22 5 -19 10 2 4 -3 7 -12 7 -11 0 -15 5 -11
16 3 9 2 12 -5 8 -12 -7 -59 34 -59 53 0 7 -4 13 -10 13 -5 0 -7 7 -4 15 4 10
2 13 -7 10 -10 -4 -14 5 -15 31 0 20 -5 39 -10 42 -13 9 -84 154 -84 171 0 8
-3 11 -7 8 -11 -11 -31 13 -26 31 2 10 -6 29 -17 42 l-22 25 21 3 c15 2 21 10
20 25 -4 42 1 68 11 62 6 -4 7 6 4 24 -4 17 -2 37 4 44 6 7 13 37 16 67 6 63
15 98 46 190 12 36 22 73 22 82 0 11 5 15 15 11 12 -5 14 -1 8 15 -7 23 10 31
18 10 4 -9 6 -8 6 3 1 8 -5 21 -11 28 -11 11 -10 13 4 8 15 -5 16 -2 7 19 -5
14 -7 30 -4 34 3 5 12 30 19 55 l14 45 -93 0 c-87 0 -93 -1 -100 -22 l-8 -23
-4 23 c-2 12 -11 22 -19 22 -17 0 -20 -60 -3 -77 8 -8 8 -16 0 -30 -10 -17
-10 -16 -11 5 0 13 -6 22 -15 22 -11 0 -15 -11 -15 -40 0 -29 4 -40 15 -40 11
0 15 -11 15 -40 0 -29 4 -40 15 -40 8 0 15 -6 15 -14 0 -8 6 -16 12 -18 10 -4
10 -10 1 -29 -6 -14 -9 -37 -6 -51 5 -28 -15 -143 -24 -134 -10 10 -12 96 -3
96 6 0 10 7 10 15 0 8 -4 15 -10 15 -5 0 -8 20 -5 48 3 37 3 41 -4 17 -8 -29
-9 -28 -10 13 0 23 -5 42 -11 42 -5 0 -10 18 -10 40 0 22 -4 40 -10 40 -5 0
-10 18 -10 40 0 29 -4 40 -15 40 -10 0 -15 10 -15 30 0 28 -2 30 -40 30 -22 0
-40 5 -40 10 0 6 -28 10 -65 10 l-65 0 0 -80 c0 -47 4 -80 10 -80 6 0 10 -8
10 -18 0 -23 34 -52 50 -42 25 15 50 -27 50 -84 0 -97 12 -176 26 -176 9 0 14
-12 14 -33 0 -39 37 -79 51 -56 6 10 9 7 10 -11 l1 -25 8 25 c4 14 8 42 9 63
1 20 6 37 11 37 16 0 7 -123 -10 -141 -12 -13 -18 -11 -46 18 -19 18 -43 33
-54 33 -12 0 -19 -4 -16 -8 3 -5 -2 -9 -10 -9 -10 0 -11 4 -5 10 7 7 5 21 -4
42 -9 24 -10 36 -2 44 8 8 5 11 -10 11 -17 0 -21 8 -27 61 -3 34 -6 89 -6 122
0 92 -9 63 -11 -36 -2 -80 -3 -87 -20 -82 -10 4 -29 1 -41 -6 -22 -12 -22 -11
-5 8 22 25 24 93 2 93 -11 0 -15 12 -17 43 l-1 42 -4 -37 c-3 -30 -9 -38 -24
-38 -15 0 -19 7 -19 34 0 19 6 36 12 38 9 3 4 15 -14 36 -17 21 -28 28 -32 19
-4 -6 -4 -1 -1 13 2 14 5 40 5 58 0 22 5 32 15 32 11 0 15 11 15 40 l0 40
-359 0 c-334 0 -360 -1 -364 -17 -4 -17 -5 -17 -6 0 -1 16 -31 17 -480 17
l-479 0 -6 -57 c-4 -32 -9 -82 -12 -110 -5 -38 -11 -53 -21 -53 -9 0 -13 -6
-10 -14 4 -10 1 -13 -9 -9 -8 3 -14 -1 -14 -10 0 -9 -5 -19 -12 -23 -8 -5 -9
0 -6 14 4 12 2 22 -3 22 -5 0 -9 29 -9 65 0 57 -2 65 -19 65 -11 0 -21 -6 -24
-12 -3 -9 -13 -4 -30 15 -14 15 -31 27 -37 27 -5 0 -10 18 -10 40 l0 40 -150
0 -150 0 0 -40 c0 -33 -3 -40 -20 -40 -17 0 -20 -7 -21 -42 -1 -90 3 -175 11
-237 6 -46 3 -150 -12 -360 -23 -318 -34 -740 -18 -706 5 11 9 38 9 60 1 22 8
60 15 85 11 36 15 41 21 26 5 -10 4 -21 -1 -25 -5 -3 -10 -78 -11 -166 -1 -88
1 -152 5 -143 7 18 4 -257 -3 -279 -3 -8 -23 -13 -52 -13 -47 0 -126 -22 -149
-41 -6 -5 -20 -6 -29 -2 -12 4 -16 3 -11 -5 7 -12 -12 -28 -22 -18 -8 9 -4
228 8 431 9 157 14 245 26 515 3 74 8 138 10 142 3 4 7 94 9 200 3 106 9 204
14 218 9 25 16 108 28 328 l5 112 -256 0 -256 0 0 -2300z m3120 2200 c0 -54
-2 -60 -21 -60 -17 0 -19 4 -13 23 7 19 10 43 13 85 1 6 6 12 11 12 6 0 10
-27 10 -60z m-1307 13 c-7 -2 -19 -2 -25 0 -7 3 -2 5 12 5 14 0 19 -2 13 -5z
m1507 -48 c0 -14 -4 -25 -10 -25 -11 0 -14 33 -3 43 11 11 13 8 13 -18z
m-2216 -40 c-4 -8 -10 -15 -14 -15 -4 0 -10 7 -14 15 -4 10 1 15 14 15 13 0
18 -5 14 -15z m2046 -105 c0 -22 5 -40 10 -40 6 0 10 18 10 40 0 33 3 40 20
40 16 0 20 -7 20 -32 0 -65 -9 -78 -51 -78 l-39 0 0 55 c0 42 3 55 15 55 11 0
15 -11 15 -40z m1327 8 c-3 -8 -6 -5 -6 6 -1 11 2 17 5 13 3 -3 4 -12 1 -19z
m-3300 -20 c-3 -8 -6 -5 -6 6 -1 11 2 17 5 13 3 -3 4 -12 1 -19z m3093 -77 c0
-6 -4 -13 -10 -16 -5 -3 -10 1 -10 9 0 9 5 16 10 16 6 0 10 -4 10 -9z m-13
-53 c-3 -8 -6 -5 -6 6 -1 11 2 17 5 13 3 -3 4 -12 1 -19z m-1237 -19 c0 -5 4
-8 8 -5 5 3 9 -8 9 -23 0 -22 -3 -26 -13 -17 -6 6 -10 15 -7 19 3 5 -3 15 -13
22 -18 13 -18 14 -1 15 9 0 17 -5 17 -11z m1113 -31 c-6 -7 -16 -30 -23 -51
-6 -21 -14 -37 -16 -35 -6 6 19 82 29 89 5 4 6 13 2 20 -6 11 -5 11 5 2 9 -9
10 -16 3 -25z m-1063 -28 c0 -5 -2 -10 -4 -10 -3 0 -8 5 -11 10 -3 6 -1 10 4
10 6 0 11 -4 11 -10z m0 -41 c0 -6 -4 -7 -10 -4 -5 3 -10 11 -10 16 0 6 5 7
10 4 6 -3 10 -11 10 -16z m200 -23 c0 -3 -4 -8 -10 -11 -5 -3 -10 -1 -10 4 0
6 5 11 10 11 6 0 10 -2 10 -4z m824 -65 c3 -5 -1 -11 -9 -14 -9 -4 -12 -1 -8
9 6 16 10 17 17 5z m18 -46 c0 -5 -5 -11 -11 -13 -6 -2 -11 4 -11 13 0 9 5 15
11 13 6 -2 11 -8 11 -13z m-46 -47 c-13 -18 -16 -19 -16 -5 0 9 5 17 10 17 6
0 11 10 11 23 1 16 3 17 6 5 2 -10 -3 -28 -11 -40z m-86 -188 c0 -5 -4 -10
-10 -10 -5 0 -10 5 -10 10 0 6 5 10 10 10 6 0 10 -4 10 -10z m-3249 -81 c-5
-13 -10 -19 -10 -12 -1 15 10 45 15 40 3 -2 0 -15 -5 -28z m3189 -104 c0 -5
-5 -3 -10 5 -5 8 -10 20 -10 25 0 6 5 3 10 -5 5 -8 10 -19 10 -25z m-26 0 c9
-14 13 -25 8 -25 -5 0 -14 11 -20 25 -6 14 -10 25 -8 25 2 0 11 -11 20 -25z
m-25 -49 c1 -30 -3 -57 -9 -61 -11 -7 -14 72 -4 99 9 24 11 20 13 -38z m233
-13 c-2 -37 0 -44 8 -33 8 12 9 9 4 -12 -6 -28 21 -185 36 -203 11 -14 18 -75
8 -69 -4 3 -8 12 -8 20 0 8 -4 14 -10 14 -5 0 -7 -7 -3 -16 8 -21 -17 -64 -37
-64 -13 0 -16 6 -12 25 3 18 0 25 -12 25 -9 0 -16 6 -16 14 0 8 -4 16 -8 18
-16 6 -49 64 -61 106 -12 41 -11 48 15 99 16 30 44 70 63 89 20 19 36 34 36
34 0 0 -1 -21 -3 -47z m-3455 -15 c-2 -13 -4 -5 -4 17 -1 22 1 32 4 23 2 -10
2 -28 0 -40z m43 -3 c0 -14 -6 -25 -13 -25 -7 0 -18 -12 -24 -27 l-11 -28 -1
28 c-1 15 3 27 7 27 5 0 14 11 20 25 6 14 14 25 17 25 3 0 5 -11 5 -25z m3141
-36 c-10 -23 -10 -23 -7 6 7 47 8 51 13 34 2 -8 -1 -26 -6 -40z m-191 -19 c0
-5 -2 -10 -4 -10 -3 0 -8 5 -11 10 -3 6 -1 10 4 10 6 0 11 -4 11 -10z m163
-57 c-5 -11 -8 -12 -13 -2 -5 7 -6 19 -3 26 5 11 8 12 13 2 5 -7 6 -19 3 -26z
m-267 -1 c1 -7 0 -8 -3 -2 -2 5 -11 10 -18 10 -10 0 -11 -5 -2 -24 7 -14 17
-22 25 -18 8 3 4 -7 -9 -21 -12 -15 -25 -27 -27 -27 -3 0 -3 3 0 6 3 3 2 21
-3 40 -6 19 -7 39 -4 45 9 13 38 7 41 -9z m-1854 -230 c4 2 18 -12 31 -29 26
-36 175 -163 190 -163 6 0 6 5 0 13 -10 12 -34 77 -29 77 4 0 216 -111 216
-113 0 -1 -11 -3 -24 -3 -25 -2 -136 -80 -136 -96 0 -5 -19 -17 -43 -27 -23
-10 -49 -26 -56 -35 -8 -9 -45 -36 -84 -58 -38 -23 -83 -59 -100 -81 -18 -22
-51 -53 -75 -69 -41 -28 -44 -29 -67 -14 -14 9 -25 24 -25 34 0 9 -11 49 -24
87 -14 39 -23 71 -22 72 1 1 24 -18 51 -42 26 -25 50 -44 51 -42 1 1 -6 20
-16 42 -22 48 -36 115 -23 115 5 0 17 -9 26 -21 34 -39 30 -10 -7 51 -20 34
-36 68 -36 76 0 8 -4 14 -9 14 -5 0 -11 11 -13 25 -7 35 1 31 47 -22 64 -74
86 -96 92 -89 3 3 -8 29 -26 57 -31 50 -37 76 -11 44 7 -8 17 -15 23 -15 6 0
1 10 -10 23 -38 42 -36 52 3 15 22 -21 44 -38 50 -38 5 0 21 -11 35 -24 23
-21 62 -46 72 -46 2 0 -11 30 -30 66 -29 59 -42 104 -28 104 2 0 18 -13 35
-30 17 -16 36 -30 42 -30 7 0 5 5 -4 13 -19 15 -88 116 -88 129 0 5 5 6 11 2
8 -5 8 -1 0 14 -6 11 -11 27 -10 34 0 7 4 5 8 -5 4 -10 10 -17 13 -15z m834
-131 c-4 -5 -1 -11 4 -13 6 -2 17 -26 24 -55 l14 -52 -42 -6 c-22 -3 -51 -11
-63 -17 -17 -8 -25 -7 -38 6 -9 9 -30 17 -46 17 -16 1 -44 3 -61 4 -18 2 -55
4 -83 5 l-50 1 32 14 c22 9 31 19 27 29 -5 12 0 12 33 1 31 -11 152 -21 199
-16 7 1 17 21 23 46 6 25 16 45 22 45 5 0 8 -4 5 -9z m-42 -27 c3 -8 2 -12 -4
-9 -6 3 -10 10 -10 16 0 14 7 11 14 -7z m178 -16 c24 19 40 -2 36 -49 -3 -39
-6 -44 -29 -47 -14 -2 -36 5 -49 16 -22 18 -23 19 -5 56 12 25 20 33 26 25 6
-10 11 -10 21 -1z m132 -38 c43 0 60 -18 37 -39 -9 -9 -11 -12 -4 -7 17 11 65
-2 60 -17 -2 -7 -17 -12 -33 -12 -35 -1 -57 -13 -48 -27 3 -5 -7 -3 -24 6 -43
22 -65 84 -40 113 12 15 13 15 16 0 2 -12 14 -17 36 -17z m1420 -15 c3 -8 12
-15 21 -15 9 0 20 -10 25 -22 7 -18 9 -19 9 -5 1 9 6 17 12 17 6 0 8 -9 5 -20
-3 -11 -9 -30 -12 -42 -19 -69 -58 -135 -97 -163 -23 -16 -46 -28 -50 -27 -5
1 -6 -2 -2 -7 25 -41 -222 -68 -299 -33 -44 20 -45 27 -7 40 25 9 30 8 34 -10
9 -32 27 -10 27 33 0 22 6 55 14 73 15 37 2 33 199 52 65 6 77 16 32 27 -13 3
-9 5 13 6 17 0 32 -4 32 -9 0 -7 6 -7 20 0 11 6 20 19 20 28 0 10 5 23 12 30
18 18 -3 14 -24 -5 -22 -20 -37 -9 -20 17 8 14 8 20 0 22 -15 5 -1 28 17 28 7
0 15 -7 19 -15z m-2041 -2 c-7 -2 -19 -2 -25 0 -7 3 -2 5 12 5 14 0 19 -2 13
-5z m711 -9 c3 -8 2 -12 -4 -9 -6 3 -10 10 -10 16 0 14 7 11 14 -7z m-744 -39
c40 -28 95 -75 88 -75 -3 0 -18 6 -34 14 -31 15 -52 19 -96 17 -39 -2 -47 -60
-19 -136 12 -31 21 -61 21 -68 -1 -13 -45 34 -52 55 -7 19 -32 -4 -48 -42 -20
-47 -7 -63 43 -56 52 7 58 3 91 -58 32 -60 32 -60 1 -74 -38 -18 -32 -42 10
-42 27 0 35 -4 34 -17 0 -11 -3 -13 -6 -5 -2 6 -9 10 -13 7 -5 -3 -7 -12 -3
-20 3 -8 0 -15 -6 -15 -16 0 -30 -12 -150 -127 -58 -56 -102 -105 -98 -109 9
-10 82 9 140 36 47 21 118 39 159 40 24 0 26 -3 23 -30 -3 -21 1 -33 11 -37
13 -5 13 -7 2 -14 -9 -6 -7 -9 9 -9 34 0 37 -18 4 -25 -16 -3 -35 -13 -41 -20
-9 -11 -7 -15 12 -20 13 -3 28 -16 33 -28 14 -31 59 -33 174 -7 106 23 149 41
181 75 28 30 17 58 -20 53 -20 -3 -26 -1 -23 9 7 19 -8 16 -23 -4 -7 -10 -15
-15 -19 -11 -7 6 -1 16 33 53 6 7 12 18 12 24 0 6 4 11 8 11 5 0 14 12 20 26
7 14 16 23 20 20 5 -3 9 1 9 8 0 22 25 76 34 76 5 0 9 10 9 23 1 20 31 67 44
67 3 0 3 -8 0 -17 -5 -15 -4 -16 5 -3 16 22 14 60 -4 60 -8 0 -15 5 -15 12 0
6 -9 3 -20 -7 -26 -23 -45 -23 -366 -1 -12 0 -40 17 -63 36 -37 29 -41 36 -27
45 9 7 13 15 9 18 -3 4 1 7 11 7 9 0 14 5 11 10 -3 6 3 10 13 10 16 0 19 5 15
23 -4 20 -3 21 10 4 12 -15 16 -15 26 -3 7 8 22 16 33 18 14 2 22 12 24 28 3
30 22 81 23 62 1 -11 4 -11 15 0 7 8 26 14 42 13 16 0 38 8 48 17 11 10 27 16
35 14 9 -2 29 -7 44 -10 15 -4 25 -11 22 -16 -3 -6 -2 -10 3 -10 10 0 26 29
24 42 -2 8 18 13 82 22 35 5 37 4 20 -9 -18 -14 -18 -14 3 -15 12 0 23 4 25
10 2 6 8 6 18 0 13 -8 12 -10 -2 -10 -27 0 -22 -19 7 -26 16 -4 25 -13 25 -25
0 -15 7 -19 40 -19 33 0 40 3 40 19 0 11 4 22 9 25 23 15 28 -164 7 -259 -8
-33 -14 -51 -15 -41 -1 16 -5 15 -26 -10 -25 -29 -27 -34 -29 -66 -1 -10 -5
-18 -11 -18 -5 0 -10 8 -11 18 -3 44 -7 43 -14 -3 -11 -71 -12 -115 -1 -115 5
0 13 9 16 20 3 11 11 20 17 20 6 0 5 -6 -2 -15 -18 -22 -20 -75 -4 -75 7 0 15
4 19 10 3 5 12 7 20 3 8 -3 15 0 15 6 0 6 3 10 8 9 4 -1 24 2 45 6 27 6 37 13
37 27 0 21 8 23 30 9 8 -5 10 -10 3 -10 -7 0 -1 -20 14 -52 24 -49 25 -56 13
-98 -19 -69 -30 -143 -24 -162 3 -10 1 -18 -4 -18 -16 0 -23 30 -16 66 5 30 4
34 -15 34 -25 0 -25 3 -6 -50 17 -48 20 -94 6 -85 -5 3 -13 -5 -17 -17 -8 -25
-34 -49 -47 -41 -4 2 -5 9 -2 14 9 14 -17 79 -32 79 -8 0 -13 -14 -13 -40 0
-24 -5 -40 -12 -40 -9 0 -9 -3 0 -12 19 -19 14 -34 -15 -47 -21 -10 -24 -14
-13 -21 12 -7 11 -10 -4 -16 -10 -4 -29 -18 -42 -30 -12 -13 -28 -24 -34 -24
-6 0 -8 -5 -4 -11 4 -8 -4 -9 -27 -4 -31 7 -32 6 -20 -9 19 -22 5 -34 -44 -41
-21 -2 -43 -11 -47 -20 -5 -8 -15 -15 -23 -15 -13 0 -75 -30 -85 -41 -3 -3
-12 -8 -20 -11 -8 -3 -21 -23 -29 -44 -8 -22 -21 -49 -29 -62 -20 -30 -123
-82 -163 -82 -66 0 -15 -14 94 -26 173 -18 193 -26 221 -82 13 -26 26 -74 30
-106 4 -32 21 -93 40 -135 47 -108 48 -117 35 -279 -9 -115 -8 -161 1 -213 19
-98 8 -122 -59 -132 -33 -6 -63 -5 -82 2 -23 8 -39 7 -70 -5 -21 -9 -39 -20
-39 -25 0 -5 -7 -6 -15 -3 -8 4 -15 1 -15 -5 0 -21 -33 -11 -76 24 -23 19 -46
35 -51 35 -5 0 -25 14 -45 30 -20 17 -53 37 -72 45 -49 21 -99 67 -138 128
-42 64 -53 91 -118 297 -87 273 -115 348 -188 505 -69 145 -81 185 -41 136 10
-13 19 -21 19 -18 0 3 16 -10 35 -29 35 -33 52 -44 40 -24 -9 15 16 12 50 -6
39 -21 307 -101 365 -109 50 -6 -95 46 -248 91 -108 31 -154 52 -229 103 -33
22 -64 41 -67 41 -13 0 -146 135 -169 170 -19 30 -23 55 -29 165 -3 72 -10
180 -14 242 -7 110 -7 112 21 160 35 60 42 65 83 59 23 -3 32 -1 32 9 0 8 -4
17 -10 20 -19 12 -10 30 22 44 17 8 59 33 92 55 65 44 75 49 174 90 67 28 82
27 82 -5 0 -10 5 -19 10 -19 6 0 10 6 10 12 0 7 14 62 32 121 49 168 86 195
178 132z m750 -105 c0 -5 -4 -10 -10 -10 -5 0 -10 5 -10 10 0 6 5 10 10 10 6
0 10 -4 10 -10z m-1539 -165 c18 -12 99 -124 99 -138 0 -11 -68 -117 -75 -117
-17 0 -37 61 -45 132 -4 45 -11 95 -15 110 -7 28 4 32 36 13z m1519 -185 c0
-5 -4 -10 -10 -10 -5 0 -10 5 -10 10 0 6 5 10 10 10 6 0 10 -4 10 -10z m190
-39 c0 -22 -45 -79 -54 -70 -10 10 5 39 20 39 8 0 14 10 14 25 0 14 5 25 10
25 6 0 10 -9 10 -19z m-760 -49 c0 -17 -108 -63 -161 -68 l-54 -5 50 28 c28
15 75 33 105 39 30 6 56 12 58 13 1 0 2 -3 2 -7z m-1037 -41 c-3 -10 0 -22 6
-25 7 -5 9 0 6 11 -4 13 -3 12 4 -2 5 -11 26 -72 45 -135 l36 -115 -32 -27
c-18 -16 -35 -25 -39 -20 -4 4 -9 30 -12 57 -2 28 -7 61 -11 75 -21 82 -28
153 -17 176 13 29 21 32 14 5z m1267 15 c0 -2 -7 -6 -15 -10 -8 -3 -15 -1 -15
4 0 6 7 10 15 10 8 0 15 -2 15 -4z m-45 -16 c-6 -10 -42 -27 -114 -54 -48 -19
-71 -14 -25 5 16 6 52 22 79 35 56 25 69 29 60 14z m-1327 -280 c-2 -19 -7
-34 -13 -32 -9 2 -10 23 -5 110 l2 37 9 -40 c6 -22 9 -56 7 -75z m1879 -32
c-3 -8 -6 -5 -6 6 -1 11 2 17 5 13 3 -3 4 -12 1 -19z m-1967 -52 c8 -36 -2
-50 -14 -20 -8 20 -8 69 0 61 3 -3 9 -22 14 -41z m213 9 c4 -8 2 -17 -2 -20
-5 -2 -11 4 -14 15 -6 23 8 27 16 5z m28 -234 c36 -28 97 -57 159 -75 54 -15
121 -58 109 -70 -8 -8 -55 8 -194 69 -66 29 -128 55 -137 58 -10 4 -18 13 -18
22 0 22 52 19 81 -4z m1834 -62 c-4 -5 -3 -9 2 -9 4 0 8 -25 9 -56 0 -34 -3
-48 -7 -36 -4 11 -12 23 -18 27 -6 3 -11 15 -11 26 0 11 4 17 10 14 6 -4 7 6
3 26 -4 23 -3 30 6 25 6 -4 9 -12 6 -17z m0 -128 c9 -53 -13 -204 -31 -214 -8
-4 -14 -19 -14 -32 0 -14 -6 -25 -13 -25 -8 0 -11 -14 -9 -45 3 -36 1 -45 -12
-45 -11 0 -16 -9 -16 -26 0 -29 -23 -29 -28 0 -5 26 -34 56 -53 56 -19 0 -29
20 -29 56 0 14 -7 27 -15 30 -21 8 -19 31 5 56 20 22 28 68 11 68 -12 0 -1 42
16 58 11 11 13 11 13 -2 0 -9 -5 -16 -11 -16 -5 0 -7 -4 -4 -10 3 -5 26 -10
51 -10 38 0 44 -3 44 -22 l0 -21 20 23 c11 13 20 37 20 54 0 65 12 106 30 106
13 0 20 -11 25 -39z m95 -192 c0 -54 -4 -66 -30 -96 -16 -18 -30 -43 -30 -53
0 -15 -7 -20 -25 -20 -25 0 -25 1 -9 25 9 14 14 34 11 45 -3 11 -1 23 5 26 6
4 6 9 -2 14 -9 6 -5 18 15 46 19 28 26 33 22 16 -3 -12 -1 -20 4 -16 5 3 9 14
9 24 0 25 10 50 21 50 5 0 9 -28 9 -61z m-330 -80 c0 -5 -4 -9 -10 -9 -5 0
-10 7 -10 16 0 8 5 12 10 9 6 -3 10 -10 10 -16z m760 -140 c0 -5 -4 -9 -10 -9
-5 0 -10 7 -10 16 0 8 5 12 10 9 6 -3 10 -10 10 -16z m-623 -91 c-2 -13 -4 -3
-4 22 0 25 2 35 4 23 2 -13 2 -33 0 -45z m693 3 c0 -11 -3 -11 -17 0 -15 12
-16 12 -9 -1 7 -11 5 -11 -9 2 -23 22 -11 42 15 25 11 -6 20 -18 20 -26z m42
-46 c45 -55 69 -95 58 -95 -6 0 -15 11 -20 25 -5 14 -12 25 -14 25 -6 0 9 -54
20 -72 4 -7 -2 -4 -14 6 -12 11 -22 27 -22 38 0 10 -6 18 -14 18 -8 0 -17 11
-20 25 -3 13 -15 29 -26 35 -11 6 -18 15 -16 19 11 17 44 5 68 -24z m572 -142
c-13 -9 -21 -10 -31 -2 -15 13 -7 33 9 23 6 -4 8 2 4 17 l-7 24 21 -25 c20
-23 21 -25 4 -37z m-154 12 c0 -8 -4 -15 -10 -15 -5 0 -10 5 -10 10 0 6 -5 10
-11 10 -5 0 -7 -6 -3 -12 5 -9 2 -9 -9 1 -23 18 -22 21 13 21 20 0 30 -5 30
-15z m35 -15 c10 -11 13 -20 7 -20 -6 0 -16 9 -22 20 -6 11 -9 20 -7 20 2 0
12 -9 22 -20z m156 1 c-11 -7 -10 -10 4 -12 18 -4 18 -5 0 -22 -15 -16 -16
-20 -4 -29 12 -8 12 -9 -1 -5 -9 2 -14 14 -12 27 1 16 -2 21 -13 16 -8 -3 -15
-4 -15 -1 0 9 32 35 43 35 8 0 7 -4 -2 -9z m25 -86 c-25 -14 -33 -10 -18 8 7
8 9 17 6 20 -3 3 -3 11 1 18 6 8 12 4 20 -12 11 -20 10 -25 -9 -34z m-1352 0
c-4 -8 -8 -15 -10 -15 -2 0 -4 7 -4 15 0 8 4 15 10 15 5 0 7 -7 4 -15z m1381
-15 c-3 -5 -13 -10 -21 -10 -8 0 -12 5 -9 10 3 6 13 10 21 10 8 0 12 -4 9 -10z
m0 -38 c-3 -3 -11 0 -18 7 -9 10 -8 11 6 5 10 -3 15 -9 12 -12z m-495 -154 c0
10 3 10 14 0 14 -13 15 -32 3 -44 -4 -4 -7 2 -7 14 0 12 -5 21 -11 20 -6 -2
-14 4 -16 12 -4 13 -3 13 6 0 8 -11 11 -11 11 -2z m-1890 -104 c4 -10 3 -22
-3 -26 -7 -4 -6 -12 3 -22 7 -9 10 -20 6 -23 -12 -12 -27 21 -21 46 4 15 0 27
-12 36 -17 13 -17 14 1 11 11 -1 23 -11 26 -22z m-341 -23 c11 -19 -8 -101
-45 -191 l-18 -44 -12 29 c-14 33 -12 76 5 118 6 16 11 35 11 43 0 17 31 63
42 64 4 0 12 -8 17 -19z"/>
<path d="M1767 2889 c7 -7 15 -10 18 -7 3 3 -2 9 -12 12 -14 6 -15 5 -6 -5z"/>
<path d="M2500 2690 c0 -5 7 -10 16 -10 8 0 12 5 9 10 -3 6 -10 10 -16 10 -5
0 -9 -4 -9 -10z"/>
<path d="M2580 2660 c0 -5 5 -10 10 -10 6 0 10 5 10 10 0 6 -4 10 -10 10 -5 0
-10 -4 -10 -10z"/>
<path d="M2892 2625 c0 -16 2 -22 5 -12 2 9 2 23 0 30 -3 6 -5 -1 -5 -18z"/>
<path d="M2460 2585 c0 -8 6 -15 14 -15 7 0 19 7 26 15 11 13 8 15 -14 15 -16
0 -26 -5 -26 -15z"/>
<path d="M2884 2577 c-2 -7 0 -24 5 -38 9 -22 10 -21 10 14 1 37 -5 48 -15 24z"/>
<path d="M2528 2423 c6 -2 18 -2 25 0 6 3 1 5 -13 5 -14 0 -19 -2 -12 -5z"/>
<path d="M2630 2420 c0 -5 5 -10 11 -10 5 0 7 5 4 10 -3 6 -8 10 -11 10 -2 0
-4 -4 -4 -10z"/>
<path d="M2895 2160 c-3 -5 1 -10 9 -10 9 0 16 5 16 10 0 6 -4 10 -9 10 -6 0
-13 -4 -16 -10z"/>
<path d="M2938 2153 c7 -3 16 -2 19 1 4 3 -2 6 -13 5 -11 0 -14 -3 -6 -6z"/>
<path d="M2585 2120 c3 -5 14 -10 23 -10 15 0 15 2 2 10 -20 13 -33 13 -25 0z"/>
<path d="M2838 2123 c7 -3 16 -2 19 1 4 3 -2 6 -13 5 -11 0 -14 -3 -6 -6z"/>
<path d="M2888 2123 c7 -3 16 -2 19 1 4 3 -2 6 -13 5 -11 0 -14 -3 -6 -6z"/>
<path d="M2970 2109 c0 -5 5 -7 10 -4 6 3 10 8 10 11 0 2 -4 4 -10 4 -5 0 -10
-5 -10 -11z"/>
<path d="M3000 2085 c0 -8 2 -15 4 -15 2 0 6 7 10 15 3 8 1 15 -4 15 -6 0 -10
-7 -10 -15z"/>
<path d="M2970 2051 c0 -6 4 -13 10 -16 6 -3 7 1 4 9 -7 18 -14 21 -14 7z"/>
<path d="M2800 1910 c0 -5 5 -10 10 -10 6 0 10 5 10 10 0 6 -4 10 -10 10 -5 0
-10 -4 -10 -10z"/>
<path d="M2915 1879 c-12 -18 3 -22 20 -5 14 14 14 16 1 16 -8 0 -18 -5 -21
-11z"/>
<path d="M2940 1256 c0 -8 5 -18 10 -21 6 -3 10 3 10 14 0 12 -4 21 -10 21 -5
0 -10 -6 -10 -14z"/>
<path d="M3050 1209 c0 -5 5 -7 10 -4 6 3 10 8 10 11 0 2 -4 4 -10 4 -5 0 -10
-5 -10 -11z"/>
<path d="M3012 1148 c6 -18 28 -21 28 -4 0 9 -7 16 -16 16 -9 0 -14 -5 -12
-12z"/>
<path d="M3760 884 c0 -13 18 -39 24 -34 2 3 -2 14 -10 24 -8 11 -14 16 -14
10z"/>
<path d="M2953 4560 c0 -25 2 -35 4 -22 2 12 2 32 0 45 -2 12 -4 2 -4 -23z"/>
<path d="M3575 4520 c-4 -44 -11 -80 -16 -80 -5 0 -9 -33 -9 -72 0 -40 -1 -85
-2 -101 -1 -36 5 -41 31 -25 24 15 28 38 6 38 -24 0 -17 29 10 42 18 8 25 19
25 39 0 30 23 59 46 59 8 0 14 5 14 10 0 6 -7 10 -16 10 -12 0 -15 6 -9 23 4
12 9 48 12 80 l5 57 -45 0 -45 0 -7 -80z"/>
<path d="M3683 4560 c0 -25 2 -35 4 -22 2 12 2 32 0 45 -2 12 -4 2 -4 -23z"/>
<path d="M3506 4523 c-6 -14 -5 -15 5 -6 7 7 10 15 7 18 -3 3 -9 -2 -12 -12z"/>
<path d="M4080 4479 c0 -2 6 -21 14 -43 13 -36 13 -37 18 -12 3 17 -1 31 -13
42 -11 10 -19 15 -19 13z"/>
<path d="M3700 4426 c0 -8 5 -18 10 -21 6 -3 10 3 10 14 0 12 -4 21 -10 21 -5
0 -10 -6 -10 -14z"/>
<path d="M4086 4365 c-9 -26 -7 -32 5 -12 6 10 9 21 6 23 -2 3 -7 -2 -11 -11z"/>
<path d="M4112 4360 c0 -14 2 -19 5 -12 2 6 2 18 0 25 -3 6 -5 1 -5 -13z"/>
<path d="M4191 4324 c0 -11 3 -14 6 -6 3 7 2 16 -1 19 -3 4 -6 -2 -5 -13z"/>
<path d="M4220 4311 c0 -11 4 -22 9 -25 4 -3 6 6 3 19 -5 30 -12 33 -12 6z"/>
<path d="M3530 4188 c0 -7 5 -20 10 -28 9 -13 11 -13 20 0 16 24 12 40 -10 40
-11 0 -20 -6 -20 -12z"/>
<path d="M3111 4094 c0 -11 3 -14 6 -6 3 7 2 16 -1 19 -3 4 -6 -2 -5 -13z"/>
<path d="M4141 4084 c0 -11 3 -14 6 -6 3 7 2 16 -1 19 -3 4 -6 -2 -5 -13z"/>
<path d="M4525 3890 c-3 -5 -1 -10 4 -10 6 0 11 5 11 10 0 6 -2 10 -4 10 -3 0
-8 -4 -11 -10z"/>
<path d="M4510 3466 c0 -8 5 -18 10 -21 6 -3 10 3 10 14 0 12 -4 21 -10 21 -5
0 -10 -6 -10 -14z"/>
<path d="M4527 3358 c3 -24 12 -51 21 -60 21 -25 52 -23 52 2 0 13 -7 20 -18
20 -13 0 -22 12 -31 40 -16 53 -31 51 -24 -2z"/>
<path d="M662 3260 c0 -14 2 -19 5 -12 2 6 2 18 0 25 -3 6 -5 1 -5 -13z"/>
<path d="M607 3087 c-8 -72 -5 -99 8 -85 3 3 5 41 3 84 l-3 79 -8 -78z"/>
<path d="M3710 1432 c6 -13 14 -21 18 -18 3 4 -2 14 -12 24 -18 16 -18 16 -6
-6z"/>
<path d="M4246 841 c-3 -5 1 -12 10 -15 9 -4 13 -2 8 5 -4 7 -1 10 7 7 8 -3
13 -13 11 -23 -3 -14 -1 -15 12 -4 13 12 13 15 -2 27 -19 14 -39 16 -46 3z"/>
<path d="M1817 703 c-4 -3 -7 -11 -7 -17 0 -6 5 -5 12 2 6 6 9 14 7 17 -3 3
-9 2 -12 -2z"/>
<path d="M1844 561 c7 -38 13 -48 22 -38 4 4 -1 21 -10 39 l-17 33 5 -34z"/>
<path d="M1920 483 c0 -8 -14 -13 -37 -13 -31 0 -40 -5 -50 -27 -16 -33 -17
-54 -2 -33 8 11 9 8 5 -15 -5 -21 -4 -26 3 -16 8 12 14 13 37 2 21 -9 25 -14
14 -21 -9 -6 2 -11 34 -15 26 -4 49 -5 52 -2 3 3 -6 22 -19 43 l-26 37 22 18
c16 14 18 18 5 13 -10 -3 -18 -2 -18 4 0 6 5 12 12 14 9 3 9 6 0 12 -7 4 -12
2 -12 -6 0 -9 -3 -9 -10 2 -6 10 -10 11 -10 3z m14 -29 c3 -8 2 -12 -4 -9 -6
3 -10 10 -10 16 0 14 7 11 14 -7z"/>
<path d="M2074 225 c-4 -14 -4 -28 -1 -31 8 -9 27 5 27 19 0 7 -4 6 -11 -3 -8
-12 -9 -9 -5 13 8 34 -1 36 -10 2z"/>
<path d="M1767 171 c-4 -17 -3 -21 5 -13 5 5 8 16 6 23 -3 8 -7 3 -11 -10z"/>
<path d="M2091 164 c0 -11 3 -14 6 -6 3 7 2 16 -1 19 -3 4 -6 -2 -5 -13z"/>
<path d="M3530 161 c0 -11 -117 -106 -169 -138 l-36 -23 205 1 c185 0 202 1
173 14 -29 13 -38 24 -34 47 0 4 -5 5 -13 2 -15 -6 -48 34 -40 48 3 4 -1 5 -9
2 -8 -3 -25 8 -40 25 -26 32 -37 38 -37 22z"/>
<path d="M3635 90 c3 -5 8 -10 11 -10 2 0 4 5 4 10 0 6 -5 10 -11 10 -5 0 -7
-4 -4 -10z"/>
<path d="M3692 45 c-11 -13 -9 -15 12 -15 13 0 32 -7 40 -16 18 -18 21 -3 6
27 -13 22 -40 24 -58 4z"/>
<path d="M3820 15 c-10 -12 -10 -15 4 -15 9 0 16 7 16 15 0 8 -2 15 -4 15 -2
0 -9 -7 -16 -15z"/>
<path d="M2240 9 c0 -5 5 -7 10 -4 6 3 10 8 10 11 0 2 -4 4 -10 4 -5 0 -10 -5
-10 -11z"/>
</g>
</svg>
